<?xml version="1.0" encoding="utf-8"?>
<!-- Generator: Adobe Illustrator 16.0.0, SVG Export Plug-In . SVG Version: 6.00 Build 0)  -->
<!DOCTYPE svg PUBLIC "-//W3C//DTD SVG 1.1//EN" "http://www.w3.org/Graphics/SVG/1.1/DTD/svg11.dtd">
<svg version="1.1" id="Layer_4" xmlns="http://www.w3.org/2000/svg" xmlns:xlink="http://www.w3.org/1999/xlink" x="0px" y="0px"
	 width="83.591px" height="78.825px" viewBox="0 0 83.591 78.825" enable-background="new 0 0 83.591 78.825" xml:space="preserve">
<path fill="#FFFFFF" d="M59.297,48.788l24.294-18.847H54.278c-0.958,1.507-2.083,2.78-2.882,2.78c-1.489,0-3.811-5.459-10.001-5.459
	c-2.977,0-6.787,1.517-6.787,5.033c0,4.367,5.894,6.067,9.167,7.219c12.501,4.245,15.061,10.368,15.061,16.13
	c0,4.301-1.86,9.206-6.165,12.374l16.614,10.808l-9.922-29.903L59.297,48.788z M40.383,48.125
	C27.347,43.999,25.917,37.996,25.917,32.84c0-0.88,0.111-1.87,0.341-2.899H0l23.315,18.812l-8.61,30.072l15.907-10.348
	c-3.719-2.331-6.302-6.093-6.302-11.378c0-5.153,3.037-8.187,3.632-8.187c1.011,0,0,12.311,12.798,12.311
	c0.369,0,0.732-0.017,1.092-0.043l0.165-0.107l0.125,0.082c3.913-0.37,7.072-2.321,7.072-5.692
	C49.194,51.036,43.836,49.216,40.383,48.125z M50.069,20.732L41.997,0l-7.861,20.413c1.973-0.829,4.359-1.338,7.259-1.338
	C44.733,19.075,47.688,19.776,50.069,20.732z"/>
</svg>
