<?xml version="1.0" encoding="utf-8"?>
<!-- Generator: Adobe Illustrator 16.0.0, SVG Export Plug-In . SVG Version: 6.00 Build 0)  -->
<!DOCTYPE svg PUBLIC "-//W3C//DTD SVG 1.1//EN" "http://www.w3.org/Graphics/SVG/1.1/DTD/svg11.dtd">
<svg version="1.1" id="Layer_4" xmlns="http://www.w3.org/2000/svg" xmlns:xlink="http://www.w3.org/1999/xlink" x="0px" y="0px"
	 width="341.493px" height="83.854px" viewBox="0 0 341.493 83.854" enable-background="new 0 0 341.493 83.854"
	 xml:space="preserve">
<path fill="#FFFFFF" d="M133.122,54.884c-6.992,0-10.372-6.807-10.372-14.031c0-6.02,2.779-11.669,9.168-11.669
	c4.214,0,5.928,3.474,5.928,4.678l0.741,0.603c1.621-0.695,2.917-3.289,2.917-4.214c-1.017-2.083-5.046-3.842-9.029-3.842
	c-8.89,0-14.817,6.805-14.817,16.437c0,8.613,4.723,15.188,13.429,15.188c5.788,0,10.51-2.64,10.51-6.668
	c0-0.278-0.046-0.694-0.185-0.972C139.744,53.448,135.808,54.884,133.122,54.884z M168.314,26.684l-6.392,0.278h-9.399l-6.39-0.278
	c-1.482,1.62-1.065,4.816-0.741,5.28h0.88c0.184-1.391,2.129-2.456,4.861-2.456h3.566c0.139,0.834,0.186,2.177,0.186,3.519
	c0,0,0.093,11.622,0,23.661v0.742h5.047c-0.093-0.556-0.278-1.205-0.278-2.039c-0.14-6.436,0.092-25.329,0.092-25.884h3.565
	c2.732,0,4.678,1.065,4.862,2.456h0.88C169.379,31.5,169.795,28.304,168.314,26.684z M52.807,43.447l21.635-16.784H48.337
	c-0.853,1.342-1.855,2.476-2.566,2.476c-1.326,0-3.394-4.861-8.907-4.861c-2.65,0-6.043,1.351-6.043,4.482
	c0,3.888,5.248,5.402,8.164,6.428c11.132,3.78,13.413,9.234,13.413,14.365c0,3.831-1.657,8.199-5.49,11.02l14.796,9.625
	l-8.836-26.63L52.807,43.447z M35.963,42.858c-11.609-3.674-12.882-9.02-12.882-13.612c0-0.784,0.098-1.665,0.303-2.583H0
	l20.764,16.753l-7.668,26.781l14.166-9.215c-3.312-2.075-5.612-5.426-5.612-10.133c0-4.589,2.704-7.291,3.234-7.291
	c0.9,0,0,10.963,11.397,10.963c0.329,0,0.652-0.015,0.973-0.039l0.146-0.096l0.112,0.073c3.485-0.33,6.298-2.067,6.298-5.069
	C43.809,45.45,39.039,43.83,35.963,42.858z M44.589,18.463L37.399,0l-7,18.179c1.757-0.739,3.882-1.191,6.465-1.191
	C39.836,16.987,42.469,17.612,44.589,18.463z M79.149,26.801l-3.28,2.5l0.669-0.023c2.917-0.094,6.806,1.991,6.806,7.871
	c0,3.935-2.963,6.391-6.529,6.391c-1.481,0-2.268-0.093-2.917-0.417v-1.391c0-3.396,0-8.362,0.075-10.985l-4.663,3.555
	c0.104,3.1,0.004,6.903,0.004,10.811c0.045,3.564-0.047,7.547-0.047,11.575v0.742h5.047c-0.185-1.437-0.324-7.177-0.417-11.854
	c0.833,0.184,1.621,0.278,2.454,0.278c6.112,0,11.112-4.028,11.112-9.725C87.465,29.604,83.277,27.305,79.149,26.801z
	 M109.645,54.513h-8.797c-0.047-0.093-0.093-0.185-0.093-0.278c-0.092-3.01-0.186-6.947-0.139-10.835
	c1.204-0.045,4.677,0.046,4.955,0.046c1.62,0,4.167,0.046,4.167-2.546c0-0.556-0.092-0.927-0.092-0.927s-0.277,0.603-1.712,0.603
	h-7.27c0-2.964,0.186-8.937,0.324-11.298l3.936,0.138c2.592,0.093,4.584,1.158,4.862,2.548h0.88c0.509-0.511,0.509-3.984-0.603-5.14
	l-7.917,0.138h-6.946l-0.324,0.788c0.509,0.786,1.204,1.481,1.204,5.139v21.393c0,0,0.046,1.622-0.046,3.149h11.252
	c1.62,0,4.167,0,4.167-2.594c0-0.555-0.092-0.924-0.092-0.924S111.081,54.513,109.645,54.513z M302.781,29.832
	c-0.324-0.972-0.88-2.777-1.112-3.936c-1.62,0.417-4.305,0.186-5.462,3.936l-10.511,27.599h3.425
	c0.047-0.139,0.047-0.325,0.14-0.602l3.519-10.048h10.743l3.102,9.075c0.232,0.601,0.278,1.158,0.325,1.575h5.603
	c-0.555-0.88-1.158-2.039-1.621-3.706L302.781,29.832z M293.568,44.558l4.676-13.198l4.492,13.198H293.568z M282.452,52.428
	c-0.276,1.39-2.128,2.456-4.861,2.456h-5.324c-0.14-2.547-0.14-6.437-0.14-9.678c0-6.344,0.232-13.151,0.464-18.336
	c-0.88-0.418-1.807-0.557-2.64-0.557c-1.76,0-3.195,0.603-3.195,0.603l-0.324,0.787c0.511,0.788,1.204,1.437,1.204,5.093
	c0,21.486-0.044,23.107-0.092,24.635h15.233c0.974-0.974,1.159-4.214,0.556-5.002H282.452z M252.911,26.916l-0.324,0.787
	c0.787,0.926,1.204,2.269,1.204,5.001c0,14.585-0.185,16.068-0.185,16.068c-0.232,3.38-3.567,6.205-8.151,6.205
	c-2.731,0-7.084-1.02-7.084-7.826c0-6.899,0-14.54,0.231-20.281c-0.88-0.418-1.805-0.557-2.64-0.557
	c-1.758,0-3.193,0.603-3.193,0.603l-0.324,0.787c0.509,0.788,1.205,1.437,1.205,5.093c0,7.502,0.138,11.438,0.229,14.957
	c0.231,8.197,4.816,10.326,11.16,10.326c7.548,0,11.809-4.722,11.809-10.695c0-7.271,0.185-14.355,0.463-20.513
	c-0.417-0.325-1.252-0.51-2.084-0.51C254.299,26.36,253.375,26.592,252.911,26.916z M217.165,54.884
	c-6.992,0-10.372-6.807-10.372-14.031c0-6.02,2.777-11.669,9.168-11.669c4.213,0,5.925,3.474,5.925,4.678l0.742,0.603
	c1.622-0.695,2.918-3.289,2.918-4.214c-1.02-2.083-5.048-3.842-9.03-3.842c-8.892,0-14.819,6.805-14.819,16.437
	c0,8.613,4.724,15.188,13.428,15.188c5.789,0,10.512-2.64,10.512-6.668c0-0.278-0.047-0.694-0.185-0.972
	C223.786,53.448,219.85,54.884,217.165,54.884z M330.841,44.974c3.798-1.435,6.391-4.722,6.391-8.845
	c0-7.547-5.603-9.398-10.233-9.398c-0.186,0-0.325,0-8.845,0.23l-0.325,0.788c1.668,2.083,1.252,9.538,1.252,17.364
	c0.047,3.564-0.047,7.547-0.047,11.575v0.742h5.047c-0.186-1.437-0.325-7.177-0.417-11.854c0.833,0.184,1.621,0.278,2.454,0.278
	c2.962,3.334,7.454,8.195,9.122,11.576h6.252C340.197,56.457,331.954,45.53,330.841,44.974z M323.665,43.123v-1.391
	c0-4.166,0-10.695,0.139-12.362l2.501-0.092c2.916-0.094,6.805,1.897,6.805,7.871c0,3.935-2.962,6.391-6.527,6.391
	C325.1,43.539,324.312,43.446,323.665,43.123z M196.281,53.725l-8.149-23.893c-0.323-0.972-0.88-2.777-1.112-3.936
	c-1.62,0.417-4.307,0.186-5.463,3.936l-10.512,27.599h3.427c0.047-0.139,0.047-0.325,0.14-0.602l3.518-10.048h10.743l3.102,9.075
	c0.232,0.601,0.279,1.158,0.324,1.575h5.604C197.346,56.551,196.745,55.392,196.281,53.725z M178.917,44.558l4.677-13.198
	l4.492,13.198H178.917z M95.202,68.829c0-0.766,0.718-1.459,1.945-1.459c0.857,0,2.061,0.37,2.57,1.945l0.417,0.092
	c0.556-0.555,0.533-1.806,0.371-2.338c-0.579-0.348-1.366-0.811-3.173-0.811c-2.199,0-3.867,1.551-3.867,3.402
	c0,3.52,5.835,3.637,5.835,5.651c0,1.227-1.134,1.644-2.224,1.644c-1.319,0-3.125-0.972-3.31-1.852
	c-0.163,0.278-0.232,0.555-0.232,0.81c0,1.297,1.759,2.386,3.52,2.386c2.478,0,4.144-1.458,4.144-3.52
	C101.199,70.958,95.202,71.306,95.202,68.829z M251.83,69.012c-0.046-1.412-1.158-2.754-2.778-2.754c-2.271,0-3.75,1.481-4.446,2.64
	l0.116-0.648c0.069-1.066-0.069-1.946-1.181-1.946c-0.949,0-1.644,0.325-2.061,0.579l0.023,0.417c0,0,1.205,0.092,1.158,2.801
	l-0.093,7.802v0.093h2.316c-0.093-0.44-0.187-1.042-0.187-1.736c-0.045-2.454-0.045-5.649-0.045-6.6
	c0.508-0.6,1.573-1.573,3.265-1.573c1.481,0.022,1.898,1.019,1.875,3.241l-0.047,5.557c-0.023,0.416,0,0.787,0.047,1.111h2.268
	C251.645,76.03,251.877,69.985,251.83,69.012z M278.733,66.605h-2.061l-0.417,0.301c-0.439-0.44-1.506-0.648-2.199-0.648
	c-2.872,0-4.84,1.968-4.84,4.631c0,1.921,0.904,3.125,1.944,3.774c-0.715,0.325-1.62,0.973-1.62,2.061
	c0,4.028,7.548,1.018,7.548,3.82c0,1.388-1.666,2.315-3.426,2.315c-1.482,0-2.849-0.485-2.849-1.667
	c0-0.208,0.047-0.416,0.117-0.648c-0.232-0.347-0.626-0.557-0.95-0.557c-0.904,0-1.251,0.765-1.251,1.252
	c0,1.689,2.339,2.615,4.816,2.615c2.687,0,5.534-1.366,5.534-3.844c0-4.353-7.386-1.875-7.92-3.658
	c-0.045-0.162-0.067-0.255-0.067-0.394c0-0.44,0.232-0.809,0.531-1.041c0.626,0.232,1.296,0.346,1.969,0.346
	c2.361,0,4.607-1.528,4.607-4.7c0-1.088-0.439-2.223-1.158-2.778c0,0,0.046-0.023,0.093-0.023c0.185,0,0.394,0.255,1.042,0.255
	c0.762,0,1.505-0.301,1.505-1.066c0-0.186-0.047-0.394-0.139-0.625C279.544,66.327,279.429,66.605,278.733,66.605z M273.94,74.361
	c-1.644,0-2.523-1.736-2.523-4.098c0-1.02,0.232-3.034,1.967-3.034c1.645,0,2.662,1.668,2.662,4.006
	C276.046,73.18,275.261,74.361,273.94,74.361z M177.835,76.469c-0.207-0.439-0.325-1.574-0.325-2.409
	c0-3.52,0.047-4.006,0.047-4.492c0-2.361-1.645-3.311-4.19-3.311c-1.785,0-3.707,0.74-3.707,2.131c0,0.671,0.532,1.041,1.112,1.041
	c0.279,0,0.556-0.069,0.787-0.232c0-0.068-0.022-0.162-0.022-0.23c0-0.834,0.694-1.645,1.784-1.645c1.875,0,2.176,1.528,2.176,3.357
	c0,0.44-0.022,0.926-0.045,1.388c-0.58-0.139-1.16-0.23-1.739-0.23c-2.501,0-4.678,1.227-4.678,3.473
	c0,1.481,0.994,2.987,3.172,2.987c1.229,0,2.873-0.857,3.312-2.268c0,0.346,0.209,2.268,1.76,2.268c0.673,0,1.715-0.301,2.154-0.579
	v-0.418C179.364,77.301,178.277,77.349,177.835,76.469z M175.382,75.519c-0.231,0.487-1.297,1.111-2.457,1.111
	c-1.274,0-1.806-0.925-1.806-1.712c0-2.246,4.307-2.293,4.332-2.293C175.452,72.625,175.382,75.032,175.382,75.519z M201.058,72.857
	c-0.88-1.181-1.183-1.645-1.183-1.645l2.663-1.875c1.042-0.74,2.501-1.644,2.501-2.431c0-0.463-0.44-0.603-0.995-0.603
	c-0.787,0-1.76,0.393-2.014,0.579V67.3c0.185,0.114,0.276,0.232,0.276,0.393c-0.022,0.301-0.346,0.695-0.693,0.973l-3.637,3.01
	c0-3.867,0.209-7.918,0.209-9.378c0-1.204-0.372-1.782-1.459-1.782c-1.111,0-1.898,0.579-1.898,0.579v0.418
	c0.67,0.092,1.089,0.786,1.089,2.082c0,0,0.022,4.238,0.022,8.846c0,1.689-0.022,3.658-0.022,5.209v0.347h2.315
	c-0.163-0.88-0.257-2.917-0.257-5.928c0.301,0.14,1.204,1.692,2.618,3.799c1.273,1.898,1.83,2.431,3.472,2.431
	c0.533,0,1.506-0.231,1.876-0.533v-0.393C203.834,77.071,202.493,74.801,201.058,72.857z M149.541,76.538
	c-1.968,0-3.404-1.412-3.404-3.913c0-0.325,0-0.579-0.022-0.926l5.58,0.069c0.486,0,0.903-0.023,1.342-0.279c0,0,0-0.278,0-0.532
	c0-1.135-0.185-4.7-4.191-4.7c-2.941,0-4.863,2.802-4.863,6.528c0.07,3.891,2.293,5.512,4.747,5.512c2.2,0,4.515-1.458,4.515-3.242
	c0-0.278-0.092-0.555-0.092-0.555C152.319,75.774,150.86,76.538,149.541,76.538z M148.522,67.554c1.713,0,2.478,1.644,2.478,3.126
	l-4.956,0.092C146.46,68.967,146.994,67.554,148.522,67.554z M224.372,63.154c0-0.648-0.58-1.204-1.228-1.204
	c-0.694,0-1.25,0.556-1.25,1.204c0,0.648,0.555,1.252,1.25,1.252C223.792,64.406,224.372,63.803,224.372,63.154z M223.26,66.304
	c-0.949,0-1.645,0.325-2.061,0.579V67.3c0,0,1.204,0.092,1.112,2.801l-0.185,7.802v0.093h2.291c-0.092-0.44-0.139-1.064-0.139-1.736
	c0-5.256,0.139-8.011,0.139-8.011C224.486,67.184,224.372,66.304,223.26,66.304z M123.587,66.304c-1.181,0-2.27,0.579-3.195,1.39
	c0-0.879-0.162-1.39-1.32-1.39c-1.111,0-1.898,0.579-1.898,0.579V67.3c0.671,0.092,1.088,0.787,1.088,2.083
	c0,0,0.023,4.33,0.023,9.006c0,0.557-0.023,4.492-0.023,5.164h2.292c-0.022-0.115-0.092-0.532-0.116-0.88
	c-0.069-0.995-0.069-2.94-0.092-4.7c0.625,0.185,1.343,0.325,2.084,0.325c3.635,0,5.488-3.266,5.488-6.392
	C127.917,67.949,125.764,66.304,123.587,66.304z M122.684,77.024c-0.879,0-1.69-0.115-2.315-0.324h-0.023v-1.25
	c0-2.987,0.186-5.604,0.186-7.038v-0.071c0.486-0.347,1.042-0.509,1.829-0.509c1.968,0,3.404,1.621,3.404,4.468
	C125.764,74.084,125.277,77.024,122.684,77.024z"/>
</svg>
